<?xml version="1.0" standalone="yes"?>
<svg xmlns="http://www.w3.org/2000/svg" width="512" height="512">
<path style="fill:#020202; stroke:none;" d="M0 0L0 512L512 512L512 0L0 0z"/>
<path style="fill:#6c7681; stroke:none;" d="M170 15L171 16L170 15z"/>
<path style="fill:#927e6f; stroke:none;" d="M171.667 15.3333L172.333 15.6667L171.667 15.3333z"/>
<path style="fill:#fccc69; stroke:none;" d="M173 15L174 16L173 15z"/>
<path style="fill:#927e6f; stroke:none;" d="M174 15L175 16L174 15z"/>
<path style="fill:#6c7681; stroke:none;" d="M175.667 15.3333L176.333 15.6667L175.667 15.3333M253 15L254 16L253 15z"/>
<path style="fill:#927e6f; stroke:none;" d="M254 15L255 16L254 15z"/>
<path style="fill:#fccc69; stroke:none;" d="M255.667 15.3333L256.333 15.6667L255.667 15.3333z"/>
<path style="fill:#927e6f; stroke:none;" d="M257 15L258 16L257 15z"/>
<path style="fill:#6c7681; stroke:none;" d="M258 15L259 16L258 15M335.667 15.3333L336.333 15.6667L335.667 15.3333z"/>
<path style="fill:#927e6f; stroke:none;" d="M337 15L338 16L337 15z"/>
<path style="fill:#fccc69; stroke:none;" d="M338 15L339 16L338 15z"/>
<path style="fill:#927e6f; stroke:none;" d="M339.667 15.3333L340.333 15.6667L339.667 15.3333z"/>
<path style="fill:#6c7681; stroke:none;" d="M341 15L342 16L341 15M418.667 15.3333L419.333 15.6667L418.667 15.3333z"/>
<path style="fill:#927e6f; stroke:none;" d="M420 15L421 16L420 15z"/>
<path style="fill:#fccc69; stroke:none;" d="M421 15L422 16L421 15z"/>
<path style="fill:#927e6f; stroke:none;" d="M422.667 15.3333L423.333 15.6667L422.667 15.3333z"/>
<path style="fill:#6c7681; stroke:none;" d="M424 15L425 16L424 15M168 16L169 17L168 16z"/>
<path style="fill:#f1eef0; stroke:none;" d="M169.059 17.0278C165.216 19.125 165.027 23.1147 165.001 27C164.936 36.426 162.243 51.1565 165.603 59.9846C167.338 64.5416 172.509 66.9077 176.895 64.5394C185.323 59.9887 183.998 30.2034 181.347 22.0154C179.715 16.9714 173.882 14.3948 169.059 17.0278z"/>
<path style="fill:#927e6f; stroke:none;" d="M177 16L178 17L177 16M251 16L248 20L251 16z"/>
<path style="fill:#f1eef0; stroke:none;" d="M252.055 17.0278C243.731 21.5096 245.054 50.9426 247.653 58.9846C249.297 64.0726 254.908 67.2542 259.892 64.5394C268.345 59.9352 266.795 31.1984 264.427 23.0008C262.913 17.7565 257.271 14.2193 252.055 17.0278z"/>
<path style="fill:#927e6f; stroke:none;" d="M260 16L261 17L260 16M334 16L335 17L334 16z"/>
<path style="fill:#f1eef0; stroke:none;" d="M335.105 16.7423C331.375 18.3167 330.257 22.3022 330.043 26C329.485 35.6591 327.825 49.6905 330.573 58.9846C331.831 63.24 336.459 66.7138 340.995 65.2145C344.237 64.143 346.339 61.2821 346.852 57.9992C348.281 48.8565 349.721 29.645 346.397 21.0193C344.697 16.6102 339.334 14.9573 335.105 16.7423z"/>
<path style="fill:#6c7681; stroke:none;" d="M343 16L344 17L343 16M416 16L414 19L416 16z"/>
<path style="fill:#927e6f; stroke:none;" d="M417 16L418 17L417 16z"/>
<path style="fill:#f1eef0; stroke:none;" d="M418.044 16.7423C414.481 18.1864 413.269 21.4168 413.044 25C412.422 34.9228 410.767 49.4156 413.434 58.9954C414.657 63.3896 419.405 66.7679 423.995 65.2176C427.235 64.1237 429.336 61.296 429.852 57.9992C431.285 48.833 432.698 29.6361 429.258 21.0193C427.482 16.573 422.363 14.9915 418.044 16.7423z"/>
<path style="fill:#6c7681; stroke:none;" d="M426 16L427 17L426 16z"/>
<path style="fill:#927e6f; stroke:none;" d="M167 17L168 18L167 17z"/>
<path style="fill:#6c7681; stroke:none;" d="M179 17L180 18L179 17z"/>
<path style="fill:#927e6f; stroke:none;" d="M261 17L262 18L261 17z"/>
<path style="fill:#6c7681; stroke:none;" d="M332 17L333 18L332 17z"/>
<path style="fill:#927e6f; stroke:none;" d="M344 17L345 18L344 17M427 17L428 18L427 17M166 18L167 19L166 18M262 18L263 19L262 18M345 18L346 19L345 18M428 18L429 19L428 18z"/>
<path style="fill:#6c7681; stroke:none;" d="M165 19L166 20L165 19z"/>
<path style="fill:#927e6f; stroke:none;" d="M180 19L181 20L180 19M263 19L264 20L263 19z"/>
<path style="fill:#fccc69; stroke:none;" d="M331 19L332 20L331 19z"/>
<path style="fill:#6c7681; stroke:none;" d="M346 19L347 20L346 19M429 19L430 20L429 19M181 20L182 21L181 20M247 20L248 21L247 20M264.333 20.6667L264.667 21.3333L264.333 20.6667M330 20L331 21L330 20M413 20L414 21L413 20z"/>
<path style="fill:#927e6f; stroke:none;" d="M429 20L430 21L429 20z"/>
<path style="fill:#6c7681; stroke:none;" d="M164 21L165 22L164 21z"/>
<path style="fill:#927e6f; stroke:none;" d="M181 21L182 22L181 21M247 21L248 22L247 21M330 21L331 22L330 21z"/>
<path style="fill:#6c7681; stroke:none;" d="M347 21L348 22L347 21M430 21L430 24L431 24L430 21z"/>
<path style="fill:#927e6f; stroke:none;" d="M164.333 22.6667L164.667 23.3333L164.333 22.6667z"/>
<path style="fill:#fccc69; stroke:none;" d="M247 22L248 23L247 22z"/>
<path style="fill:#927e6f; stroke:none;" d="M264 22L265 23L264 22M347 22L347 59L348 59C348 48.3511 351.111 31.7979 347 22z"/>
<path style="fill:#6c7681; stroke:none;" d="M412 23L412 58L413 58L412 23z"/>
<path style="fill:#fccc69; stroke:none;" d="M164 24L164 57L165 57L164 24z"/>
<path style="fill:#927e6f; stroke:none;" d="M430 24L430 57L431 57L430 24z"/>
<path style="fill:#6c7681; stroke:none;" d="M135 48L136 49L135 48z"/>
<path style="fill:#927e6f; stroke:none;" d="M136.667 48.3333L137.333 48.6667L136.667 48.3333z"/>
<path style="fill:#fccc69; stroke:none;" d="M115 116L480 116C480 96.7185 487.556 59.7377 465 50.483C459.072 48.0509 452.298 48.0007 446 48C446 54.8549 446.451 61.7577 443.084 68C434.354 84.1833 413.393 84.9925 402.39 70.9992C397.109 64.2814 397 56.1387 397 48L363 48C363 54.9385 363.564 61.7078 360.095 68C351.283 83.9806 330.549 85.3858 319.532 70.9992C314.492 64.4174 314.005 55.9881 314 48L280 48C280 54.8105 280.601 61.7585 277.326 68C268.876 84.1045 247.245 85.2753 236.558 70.9962C231.432 64.1469 232 56.083 232 48L198 48C197.995 55.815 197.611 64.5763 192.606 70.9992C181.154 85.698 159.788 83.8194 151.378 67C148.39 61.024 149 54.4821 149 48C143.229 48 137.573 48.0296 132 49.7747C106.932 57.6245 115 95.8593 115 116z"/>
<path style="fill:#927e6f; stroke:none;" d="M197 48L197 58L198 58L197 48M314 48L314 58L315 58L314 48M397 48L397 60L398 60L397 48M456 48L456 49L459 49L456 48z"/>
<path style="fill:#6c7681; stroke:none;" d="M459 48L460 49L459 48M131 49L132 50L131 49z"/>
<path style="fill:#927e6f; stroke:none;" d="M132 49L133 50L132 49M462 49L463 50L462 49z"/>
<path style="fill:#6c7681; stroke:none;" d="M463 49L464 50L463 49z"/>
<path style="fill:#927e6f; stroke:none;" d="M129 50L130 51L129 50z"/>
<path style="fill:#6c7681; stroke:none;" d="M465 50L466 51L465 50z"/>
<path style="fill:#927e6f; stroke:none;" d="M127 51L128 52L127 51z"/>
<path style="fill:#6c7681; stroke:none;" d="M467 51L468 52L467 51M125 52L126 53L125 52z"/>
<path style="fill:#927e6f; stroke:none;" d="M124 53L125 54L124 53z"/>
<path style="fill:#6c7681; stroke:none;" d="M470 53L471 54L470 53z"/>
<path style="fill:#927e6f; stroke:none;" d="M123 54L124 55L123 54M471 54L472 55L471 54M472 55L473 56L472 55M473 56L474 57L473 56M120 57L121 58L120 57M164.333 57.6667L164.667 58.3333L164.333 57.6667z"/>
<path style="fill:#6c7681; stroke:none;" d="M430 57L430 60L431 60L430 57z"/>
<path style="fill:#927e6f; stroke:none;" d="M474 57L475 58L474 57M119 58L120 59L119 58M264.333 58.6667L264.667 59.3333L264.333 58.6667z"/>
<path style="fill:#6c7681; stroke:none;" d="M445.333 58.6667L445.667 59.3333L445.333 58.6667M475 58L476 59L475 58M164 59L165 60L164 59z"/>
<path style="fill:#927e6f; stroke:none;" d="M181 59L182 60L181 59M247 59L248 60L247 59z"/>
<path style="fill:#fccc69; stroke:none;" d="M330 59L331 60L330 59z"/>
<path style="fill:#6c7681; stroke:none;" d="M347 59L348 60L347 59M149 60L150 61L149 60M181 60L182 61L181 60M247 60L248 61L247 60M264 60L265 61L264 60M330 60L331 61L330 60M362 60L363 61L362 60z"/>
<path style="fill:#927e6f; stroke:none;" d="M413 60L414 61L413 60M445.333 60.6667L445.667 61.3333L445.333 60.6667M476 60L477 61L476 60z"/>
<path style="fill:#6c7681; stroke:none;" d="M117 61L118 62L117 61z"/>
<path style="fill:#927e6f; stroke:none;" d="M149.333 61.6667L149.667 62.3333L149.333 61.6667M165 61L166 62L165 61z"/>
<path style="fill:#fccc69; stroke:none;" d="M180 61L181 62L180 61z"/>
<path style="fill:#6c7681; stroke:none;" d="M232 61L233 62L232 61z"/>
<path style="fill:#fccc69; stroke:none;" d="M248 61L249 62L248 61z"/>
<path style="fill:#927e6f; stroke:none;" d="M263 61L264 62L263 61z"/>
<path style="fill:#6c7681; stroke:none;" d="M279 61L280 62L279 61z"/>
<path style="fill:#927e6f; stroke:none;" d="M346 61L347 62L346 61M362.333 61.6667L362.667 62.3333L362.333 61.6667z"/>
<path style="fill:#6c7681; stroke:none;" d="M429 61L430 62L429 61M477 61L478 62L477 61z"/>
<path style="fill:#fccc69; stroke:none;" d="M166 62L168 64L166 62z"/>
<path style="fill:#6c7681; stroke:none;" d="M180 62L181 63L180 62M196 62L197 63L196 62z"/>
<path style="fill:#927e6f; stroke:none;" d="M232 62L233 63L232 62z"/>
<path style="fill:#6c7681; stroke:none;" d="M248 62L249 63L248 62M263 62L264 63L263 62z"/>
<path style="fill:#927e6f; stroke:none;" d="M279 62L280 63L279 62z"/>
<path style="fill:#6c7681; stroke:none;" d="M315 62L316 63L315 62M331 62L332 63L331 62z"/>
<path style="fill:#fccc69; stroke:none;" d="M345 62L344 64L345 62z"/>
<path style="fill:#6c7681; stroke:none;" d="M414 62L415 63L414 62z"/>
<path style="fill:#927e6f; stroke:none;" d="M428 62L429 63L428 62M477 62L478 63L477 62z"/>
<path style="fill:#6c7681; stroke:none;" d="M116 63L117 64L116 63M166 63L167 64L166 63M179 63L180 64L179 63z"/>
<path style="fill:#927e6f; stroke:none;" d="M196 63L197 64L196 63z"/>
<path style="fill:#6c7681; stroke:none;" d="M249 63L250 64L249 63M262 63L263 64L262 63z"/>
<path style="fill:#927e6f; stroke:none;" d="M315 63L316 64L315 63z"/>
<path style="fill:#6c7681; stroke:none;" d="M332 63L333 64L332 63M345 63L346 64L345 63M398 63L399 64L398 63z"/>
<path style="fill:#927e6f; stroke:none;" d="M415 63L416 64L415 63M427 63L428 64L427 63M168 64L169 65L168 64z"/>
<path style="fill:#fccc69; stroke:none;" d="M177 64L178 65L177 64z"/>
<path style="fill:#6c7681; stroke:none;" d="M178 64L179 65L178 64M250 64L251 65L250 64z"/>
<path style="fill:#927e6f; stroke:none;" d="M251 64L252 65L251 64M260 64L261 65L260 64z"/>
<path style="fill:#6c7681; stroke:none;" d="M261 64L262 65L261 64M333 64L334 65L333 64z"/>
<path style="fill:#fccc69; stroke:none;" d="M334 64L335 65L334 64z"/>
<path style="fill:#927e6f; stroke:none;" d="M343 64L344 65L343 64M398 64L399 65L398 64z"/>
<path style="fill:#6c7681; stroke:none;" d="M416 64L417 65L416 64z"/>
<path style="fill:#927e6f; stroke:none;" d="M426 64L427 65L426 64z"/>
<path style="fill:#6c7681; stroke:none;" d="M444 64L445 65L444 64z"/>
<path style="fill:#927e6f; stroke:none;" d="M478 64L479 65L478 64M150 65L151 66L150 65z"/>
<path style="fill:#6c7681; stroke:none;" d="M169 65L170 66L169 65z"/>
<path style="fill:#927e6f; stroke:none;" d="M170 65L171 66L170 65M175 65L176 66L175 65z"/>
<path style="fill:#6c7681; stroke:none;" d="M176 65L177 66L176 65M233 65L234 66L233 65M252 65L253 66L252 65z"/>
<path style="fill:#927e6f; stroke:none;" d="M253 65L254 66L253 65M258 65L259 66L258 65z"/>
<path style="fill:#6c7681; stroke:none;" d="M259 65L260 66L259 65M278 65L279 66L278 65M335 65L336 66L335 65z"/>
<path style="fill:#927e6f; stroke:none;" d="M336 65L337 66L336 65M341 65L342 66L341 65z"/>
<path style="fill:#6c7681; stroke:none;" d="M342 65L343 66L342 65z"/>
<path style="fill:#927e6f; stroke:none;" d="M361 65L362 66L361 65z"/>
<path style="fill:#6c7681; stroke:none;" d="M418 65L419 66L418 65z"/>
<path style="fill:#927e6f; stroke:none;" d="M419 65L420 66L419 65M424 65L425 66L424 65z"/>
<path style="fill:#6c7681; stroke:none;" d="M425 65L426 66L425 65z"/>
<path style="fill:#927e6f; stroke:none;" d="M444 65L445 66L444 65M115 66L116 67L115 66M195 66L196 67L195 66M316 66L317 67L316 66z"/>
<path style="fill:#6c7681; stroke:none;" d="M399 66L400 67L399 66M479 66L480 67L479 66M151 67L152 68L151 67M234 67L235 68L234 67M277 67L278 68L277 67M360 67L361 68L360 67z"/>
<path style="fill:#927e6f; stroke:none;" d="M443 67L444 68L443 67M479 67L480 68L479 67M194 68L195 69L194 68M234 68L235 69L234 68M277 68L278 69L277 68M317 68L318 69L317 68z"/>
<path style="fill:#6c7681; stroke:none;" d="M400 68L401 69L400 68z"/>
<path style="fill:#927e6f; stroke:none;" d="M152 69L153 70L152 69z"/>
<path style="fill:#6c7681; stroke:none;" d="M235 69L236 70L235 69M276 69L277 70L276 69z"/>
<path style="fill:#927e6f; stroke:none;" d="M359 69L360 70L359 69M442 69L443 70L442 69z"/>
<path style="fill:#6c7681; stroke:none;" d="M114.333 70.6667L114.667 71.3333L114.333 70.6667z"/>
<path style="fill:#927e6f; stroke:none;" d="M193 70L194 71L193 70M401 70L402 71L401 70z"/>
<path style="fill:#6c7681; stroke:none;" d="M441 70L442 71L441 70z"/>
<path style="fill:#927e6f; stroke:none;" d="M192 71L193 72L192 71M236 71L237 72L236 71M275 71L276 72L275 71M319 71L320 72L319 71z"/>
<path style="fill:#6c7681; stroke:none;" d="M402 71L403 72L402 71M480 71L480 116L481 116C481 103.258 484.91 82.7012 480 71z"/>
<path style="fill:#927e6f; stroke:none;" d="M114 72L114 116L115 116C115 103.52 118.81 83.4634 114 72M154 72L155 73L154 72z"/>
<path style="fill:#6c7681; stroke:none;" d="M191 72L192 73L191 72M237 72L238 73L237 72M274 72L275 73L274 72M320 72L321 73L320 72z"/>
<path style="fill:#927e6f; stroke:none;" d="M357 72L358 73L357 72M440 72L441 73L440 72M155 73L156 74L155 73z"/>
<path style="fill:#6c7681; stroke:none;" d="M238 73L239 74L238 73M273 73L274 74L273 73z"/>
<path style="fill:#927e6f; stroke:none;" d="M356 73L357 74L356 73M439 73L440 74L439 73z"/>
<path style="fill:#6c7681; stroke:none;" d="M156 74L157 75L156 74M239 74L240 75L239 74M272 74L273 75L272 74M355 74L356 75L355 74z"/>
<path style="fill:#927e6f; stroke:none;" d="M438 74L439 75L438 74M157 75L158 76L157 75z"/>
<path style="fill:#6c7681; stroke:none;" d="M188 75L189 76L188 75M240 75L241 76L240 75M271 75L272 76L271 75M323 75L324 76L323 75z"/>
<path style="fill:#927e6f; stroke:none;" d="M354 75L355 76L354 75M437 75L438 76L437 75M158 76L159 77L158 76z"/>
<path style="fill:#6c7681; stroke:none;" d="M187 76L188 77L187 76z"/>
<path style="fill:#927e6f; stroke:none;" d="M241 76L242 77L241 76M270 76L271 77L270 76M324 76L325 77L324 76M353 76L354 77L353 76z"/>
<path style="fill:#6c7681; stroke:none;" d="M407 76L408 77L407 76M160 77L161 78L160 77z"/>
<path style="fill:#927e6f; stroke:none;" d="M186 77L187 78L186 77z"/>
<path style="fill:#6c7681; stroke:none;" d="M243 77L244 78L243 77z"/>
<path style="fill:#927e6f; stroke:none;" d="M325 77L326 78L325 77z"/>
<path style="fill:#6c7681; stroke:none;" d="M351 77L352 78L351 77z"/>
<path style="fill:#927e6f; stroke:none;" d="M408 77L409 78L408 77z"/>
<path style="fill:#6c7681; stroke:none;" d="M434 77L435 78L434 77z"/>
<path style="fill:#927e6f; stroke:none;" d="M161 78L162 79L161 78M184 78L185 79L184 78M244 78L245 79L244 78M267 78L268 79L267 78M327 78L328 79L327 78M350 78L351 79L350 78M410 78L411 79L410 78z"/>
<path style="fill:#6c7681; stroke:none;" d="M432 78L433 79L432 78z"/>
<path style="fill:#927e6f; stroke:none;" d="M163 79L164 80L163 79z"/>
<path style="fill:#6c7681; stroke:none;" d="M164 79L165 80L164 79z"/>
<path style="fill:#927e6f; stroke:none;" d="M182 79L183 80L182 79M246 79L247 80L246 79z"/>
<path style="fill:#6c7681; stroke:none;" d="M247 79L248 80L247 79M264 79L265 80L264 79z"/>
<path style="fill:#927e6f; stroke:none;" d="M265 79L266 80L265 79M329 79L330 80L329 79z"/>
<path style="fill:#6c7681; stroke:none;" d="M347 79L348 80L347 79z"/>
<path style="fill:#927e6f; stroke:none;" d="M348 79L349 80L348 79M412 79L413 80L412 79z"/>
<path style="fill:#6c7681; stroke:none;" d="M430 79L431 80L430 79z"/>
<path style="fill:#927e6f; stroke:none;" d="M166 80L167 81L166 80z"/>
<path style="fill:#6c7681; stroke:none;" d="M167 80L168 81L167 80M178 80L179 81L178 80z"/>
<path style="fill:#927e6f; stroke:none;" d="M179 80L180 81L179 80M249 80L250 81L249 80z"/>
<path style="fill:#6c7681; stroke:none;" d="M250 80L251 81L250 80M261 80L262 81L261 80z"/>
<path style="fill:#927e6f; stroke:none;" d="M262 80L263 81L262 80M332 80L333 81L332 80z"/>
<path style="fill:#6c7681; stroke:none;" d="M333 80L334 81L333 80M344 80L345 81L344 80z"/>
<path style="fill:#927e6f; stroke:none;" d="M345 80L346 81L345 80M415 80L416 81L415 80z"/>
<path style="fill:#6c7681; stroke:none;" d="M416 80L417 81L416 80M427 80L428 81L427 80z"/>
<path style="fill:#927e6f; stroke:none;" d="M428 80L429 81L428 80M172.667 81.3333L173.333 81.6667L172.667 81.3333M255.667 81.3333L256.333 81.6667L255.667 81.3333M338.667 81.3333L339.333 81.6667L338.667 81.3333M421.667 81.3333L422.333 81.6667L421.667 81.3333M114 131L114 272L115 272L115 173C115 161.056 118.607 141.98 114 131z"/>
<path style="fill:#f1eef0; stroke:none;" d="M115 131L115 232C115 242.976 111.101 263.147 116.028 273C118.897 278.738 125.515 283.515 130 288L159 317L160 317C166.44 313.055 173.695 314 181 314L221 314L374 314C390.65 314 407.356 313.599 424 314.015C429.09 314.142 438.054 315.989 437.119 322.996C436.117 330.505 427.567 330 422 330L375 330L173 330C184.951 346.966 203.32 361.32 218 376C223.367 381.367 231.32 387.093 234.682 394C240.265 405.471 234.966 424.449 236.059 437C236.713 444.521 251.83 451.98 244.566 459.602C236.719 467.834 228.792 451.737 221 451.059C208.317 449.954 190.938 454.818 179 450.258C171.714 447.474 165.405 438.405 160 433C145.637 418.637 131.6 400.693 115 389L115 456C115 466.499 113.153 478.084 119.928 486.96C130.799 501.201 153.342 497 169 497L301 497L377 497C386.433 497 399.247 493.999 403 505C406.724 505 412.171 505.997 415.61 504.397C419.498 502.588 420.207 498.114 425.004 497.228C442.139 494.063 463.154 503.042 475.362 485.999C481.303 477.705 480 467.633 480 458L480 404C480 341.35 476.431 277.533 480.043 215C480.423 208.429 485.067 207.668 487.397 202.61C488.988 199.157 488 193.734 488 190C479.711 187.156 480 180.597 480 173L480 131L115 131z"/>
<path style="fill:#6c7681; stroke:none;" d="M480 131L480 183L481 183L481 148L480 131z"/>
<path style="fill:#fccc69; stroke:none;" d="M163 165L164 166L163 165z"/>
<path style="fill:#927e6f; stroke:none;" d="M164 165L164 166L431 166L406 165L352 165L164 165M161 166L162 167L161 166z"/>
<path style="fill:#020202; stroke:none;" d="M162.109 166.742C156.401 169.197 157.031 178.113 163.019 179.682C175.668 182.997 192.909 180 206 180L370 180L417 180C421.864 180 430.59 181.642 434.566 178.258C440.346 173.339 434.9 166.501 428.999 166.055C412.203 164.786 394.848 166 378 166L225 166L181 166C175.446 166 167.29 164.514 162.109 166.742z"/>
<path style="fill:#927e6f; stroke:none;" d="M433 166L434 167L433 166z"/>
<path style="fill:#6c7681; stroke:none;" d="M434 167L435 168L434 167M158 169L159 170L158 169z"/>
<path style="fill:#927e6f; stroke:none;" d="M436 169L437 170L436 169M157 171L158 172L157 171z"/>
<path style="fill:#fccc69; stroke:none;" d="M437 171L438 172L437 171z"/>
<path style="fill:#6c7681; stroke:none;" d="M157.333 172.667L157.667 173.333L157.333 172.667z"/>
<path style="fill:#927e6f; stroke:none;" d="M437 172L437 175L438 175L437 172M157 174L158 175L157 174z"/>
<path style="fill:#fccc69; stroke:none;" d="M157 175L158 176L157 175z"/>
<path style="fill:#6c7681; stroke:none;" d="M436 176L437 177L436 176z"/>
<path style="fill:#fccc69; stroke:none;" d="M158 177L159 178L158 177z"/>
<path style="fill:#927e6f; stroke:none;" d="M159 178L160 179L159 178z"/>
<path style="fill:#fccc69; stroke:none;" d="M435 178L436 179L435 178M160 179L161 180L160 179z"/>
<path style="fill:#6c7681; stroke:none;" d="M433 179L434 180L433 179z"/>
<path style="fill:#fccc69; stroke:none;" d="M162 180L163 181L162 180z"/>
<path style="fill:#6c7681; stroke:none;" d="M163 180L163 181L431 181L406 180L352 180L163 180z"/>
<path style="fill:#927e6f; stroke:none;" d="M431 180L432 181L431 180z"/>
<path style="fill:#fccc69; stroke:none;" d="M432 180L433 181L432 180z"/>
<path style="fill:#927e6f; stroke:none;" d="M480 183L481 184L480 183z"/>
<path style="fill:#fccc69; stroke:none;" d="M480 184L481 185L480 184z"/>
<path style="fill:#6c7681; stroke:none;" d="M481 185L482 186L481 185z"/>
<path style="fill:#fccc69; stroke:none;" d="M481 186L482 187L481 186z"/>
<path style="fill:#927e6f; stroke:none;" d="M482 187L483 188L482 187z"/>
<path style="fill:#fccc69; stroke:none;" d="M483 188L484 189L483 188z"/>
<path style="fill:#6c7681; stroke:none;" d="M484 188L485 189L484 188z"/>
<path style="fill:#fccc69; stroke:none;" d="M485 189L486 190L485 189z"/>
<path style="fill:#927e6f; stroke:none;" d="M486 189L487 190L486 189z"/>
<path style="fill:#6c7681; stroke:none;" d="M487 189L488 190L487 189z"/>
<path style="fill:#fccc69; stroke:none;" d="M486 204L487 205L486 204z"/>
<path style="fill:#927e6f; stroke:none;" d="M487 204L488 205L487 204z"/>
<path style="fill:#6c7681; stroke:none;" d="M484 205L485 206L484 205z"/>
<path style="fill:#fccc69; stroke:none;" d="M482 206L483 207L482 206z"/>
<path style="fill:#6c7681; stroke:none;" d="M481 208L482 209L481 208z"/>
<path style="fill:#927e6f; stroke:none;" d="M480 210L481 211L480 210z"/>
<path style="fill:#6c7681; stroke:none;" d="M480 211L480 474L481 474L481 289L481 235L480 211z"/>
<path style="fill:#fccc69; stroke:none;" d="M162 215L163 216L162 215z"/>
<path style="fill:#927e6f; stroke:none;" d="M163 215L164 216L163 215z"/>
<path style="fill:#6c7681; stroke:none;" d="M164 215L164 216L431 216L406 215L352 215L164 215z"/>
<path style="fill:#927e6f; stroke:none;" d="M431 215L432 216L431 215z"/>
<path style="fill:#fccc69; stroke:none;" d="M160 216L161 217L160 216z"/>
<path style="fill:#020202; stroke:none;" d="M161.148 217.028C155.522 220.359 158.263 228.689 164.015 229.772C177.109 232.235 192.669 230 206 230L370 230L418 230C422.808 230 431.756 231.694 435.258 227.566C439.84 222.165 434.691 216.402 428.999 216.044C412.141 214.984 394.894 216 378 216L221 216L179 216C174.012 216 165.575 214.406 161.148 217.028z"/>
<path style="fill:#6c7681; stroke:none;" d="M433 216L434 217L433 216z"/>
<path style="fill:#927e6f; stroke:none;" d="M159 217L160 218L159 217z"/>
<path style="fill:#fccc69; stroke:none;" d="M435 217L436 218L435 217M158 218L159 219L158 218z"/>
<path style="fill:#6c7681; stroke:none;" d="M436 219L437 220L436 219z"/>
<path style="fill:#fccc69; stroke:none;" d="M157 220L158 221L157 220z"/>
<path style="fill:#927e6f; stroke:none;" d="M157 221L158 222L157 221M437 221L437 224L438 224L437 221z"/>
<path style="fill:#6c7681; stroke:none;" d="M157.333 222.667L157.667 223.333L157.333 222.667z"/>
<path style="fill:#927e6f; stroke:none;" d="M157 224L158 225L157 224z"/>
<path style="fill:#fccc69; stroke:none;" d="M437 224L438 225L437 224z"/>
<path style="fill:#6c7681; stroke:none;" d="M158 226L159 227L158 226z"/>
<path style="fill:#927e6f; stroke:none;" d="M436 226L437 227L436 226z"/>
<path style="fill:#6c7681; stroke:none;" d="M161 229L162 230L161 229z"/>
<path style="fill:#927e6f; stroke:none;" d="M433 229L434 230L433 229z"/>
<path style="fill:#fccc69; stroke:none;" d="M163 230L164 231L163 230z"/>
<path style="fill:#927e6f; stroke:none;" d="M164 230L164 231L431 231L406 230L352 230L164 230M58 249L82 273L82 274C71.7261 281.237 60.2371 292.726 53 303L52 303L33 284L52 304C61.2701 297.47 68.9893 288.011 77 280C79.9043 277.096 85.6181 273.157 86.6543 269C87.6244 265.109 82.3566 261.362 80 259C73.551 252.537 67.7477 244.315 58 249z"/>
<path style="fill:#6c7681; stroke:none;" d="M67 247L68 248L67 247M70 249L71 250L70 249z"/>
<path style="fill:#fccc69; stroke:none;" d="M52 303L53 303L82 274C77.6698 267.853 66.475 253.209 59 251.346C55.4168 250.452 52.1949 254.822 50 257.001C44.604 262.357 31.6868 271.372 32.3364 280C32.9624 288.314 46.4562 297.456 52 303z"/>
<path style="fill:#6c7681; stroke:none;" d="M71 250L72 251L71 250M72 251L73 252L72 251M73 252L74 253L73 252M74 253L75 254L74 253M75 254L76 255L75 254M76 255L77 256L76 255M77 256L78 257L77 256M78 257L79 258L78 257M79 258L80 259L79 258M80 259L81 260L80 259M81 260L82 261L81 260M82 261L83 262L82 261M83 262L84 263L83 262M84 263L85 264L84 263M85 264L86 265L85 264M86 265L87 266L86 265M162 265L163 266L162 265z"/>
<path style="fill:#020202; stroke:none;" d="M163.019 265.742C156.135 268.491 157.108 277.644 164.005 279.566C175.697 282.826 191.862 280 204 280L369 280L417 280C422.224 280 430.57 281.556 434.682 277.566C440.539 271.884 434.107 265.627 428 265.094C411.261 263.633 393.806 265 377 265L227 265L183 265C177.036 265 168.63 263.502 163.019 265.742z"/>
<path style="fill:#6c7681; stroke:none;" d="M431 265L432 266L431 265z"/>
<path style="fill:#927e6f; stroke:none;" d="M432 265L433 266L432 265z"/>
<path style="fill:#6c7681; stroke:none;" d="M87 266L88 267L87 266z"/>
<path style="fill:#927e6f; stroke:none;" d="M160 266L161 267L160 266M434 266L435 267L434 266z"/>
<path style="fill:#6c7681; stroke:none;" d="M159 267L160 268L159 267z"/>
<path style="fill:#927e6f; stroke:none;" d="M435 267L436 268L435 267M158 268L159 269L158 268z"/>
<path style="fill:#fccc69; stroke:none;" d="M436 268L437 269L436 268z"/>
<path style="fill:#927e6f; stroke:none;" d="M157 270L158 271L157 270z"/>
<path style="fill:#6c7681; stroke:none;" d="M157 271L157 274L158 274L157 271z"/>
<path style="fill:#927e6f; stroke:none;" d="M437 271L437 274L438 274L437 271z"/>
<path style="fill:#6c7681; stroke:none;" d="M114 272L115 273L114 272z"/>
<path style="fill:#927e6f; stroke:none;" d="M34 273L35 274L34 273z"/>
<path style="fill:#6c7681; stroke:none;" d="M115 273L116 274L115 273z"/>
<path style="fill:#927e6f; stroke:none;" d="M33 274L34 275L33 274z"/>
<path style="fill:#6c7681; stroke:none;" d="M116 274L117 275L116 274z"/>
<path style="fill:#927e6f; stroke:none;" d="M157 274L158 275L157 274z"/>
<path style="fill:#6c7681; stroke:none;" d="M32 275L33 276L32 275M117 275L118 276L117 275z"/>
<path style="fill:#927e6f; stroke:none;" d="M32 276L33 277L32 276z"/>
<path style="fill:#6c7681; stroke:none;" d="M118 276L119 277L118 276z"/>
<path style="fill:#927e6f; stroke:none;" d="M158 276L159 277L158 276M436 276L437 277L436 276z"/>
<path style="fill:#6c7681; stroke:none;" d="M119 277L120 278L119 277M159 277L160 278L159 277M435 277L436 278L435 277M31 278L31 281L32 281L31 278M99 278C107.081 289.472 119.082 299.082 129 309L188 368C195.971 375.971 218.351 390.506 211 402C223.213 393.076 198.073 376.073 191 369L131 309C120.764 298.764 110.838 286.339 99 278M120 278L121 279L120 278M160 278L161 279L160 278z"/>
<path style="fill:#927e6f; stroke:none;" d="M434 278L435 279L434 278M87 291L93 285L94 285C102.081 296.472 114.082 306.082 124 316L182 374C191.057 383.057 212.679 396.251 204 409C207.725 406.354 216.789 399.322 214.248 394C209.542 384.141 195.714 374.714 188 367L129 308L109 288C106.578 285.579 103.484 281.214 100 280.346C95.0945 279.123 89.3832 287.617 87 291z"/>
<path style="fill:#6c7681; stroke:none;" d="M121 279L122 280L121 279z"/>
<path style="fill:#fccc69; stroke:none;" d="M161 279L162 280L161 279z"/>
<path style="fill:#6c7681; stroke:none;" d="M162 279L163 280L162 279M432 279L433 280L432 279M122 280L123 281L122 280M123 281L124 282L123 281z"/>
<path style="fill:#927e6f; stroke:none;" d="M32 282L33 283L32 282z"/>
<path style="fill:#6c7681; stroke:none;" d="M124 282L125 283L124 282M32 283L33 284L32 283M125 283L126 284L125 283M126 284L127 285L126 284z"/>
<path style="fill:#f1eef0; stroke:none;" d="M93 285L87 291L87 292L176 381C182.998 387.998 189.929 395.071 197 401.995C199.255 404.204 202.398 408.131 205.937 406.248C211.119 403.491 207.773 398.94 204.98 396C198.173 388.833 190.99 381.99 184 375L125 316C114.764 305.764 104.838 293.339 93 285z"/>
<path style="fill:#6c7681; stroke:none;" d="M127 285L128 286L127 285M128 286L129 287L128 286M129 287L130 288L129 287M130 288L131 289L130 288M131 289L132 290L131 289M132 290L133 291L132 290M133 291L134 292L133 291M134 292L135 293L134 292M135 293L136 294L135 293M136 294L137 295L136 294M137 295L138 296L137 295M138 296L139 297L138 296M139 297L140 298L139 297M140 298L141 299L140 298M141 299L142 300L141 299M142 300L143 301L142 300M143 301L144 302L143 301z"/>
<path style="fill:#927e6f; stroke:none;" d="M75 302L63 314L63 315L153 405L172 424L181 430.793L193 420L181 428.944L172 422L150 400L94 344L64 315L64 314L75 302z"/>
<path style="fill:#6c7681; stroke:none;" d="M76 302C91.5612 324.091 115.878 342.878 135 362C153.805 380.805 172.275 404.697 194 420C178.697 398.275 154.805 379.805 136 361C116.878 341.878 98.091 317.561 76 302M144 302L145 303L144 302z"/>
<path style="fill:#f1eef0; stroke:none;" d="M64 314L64 315L152 403L172 423L181 429.793L193 420L163 389L104 330L85 311L76 304.207L64 314z"/>
<path style="fill:#6c7681; stroke:none;" d="M145 303L146 304L145 303M146 304L147 305L146 304M147 305L148 306L147 305M148 306L149 307L148 306M149 307L150 308L149 307M150 308L151 309L150 308M151 309L152 310L151 309M152 310L153 311L152 310M153 311L154 312L153 311M154 312L155 313L154 312M155 313L156 314L155 313M156 314L157 315L156 314z"/>
<path style="fill:#fccc69; stroke:none;" d="M164 314L164 315L430 315L406 314L352 314L164 314z"/>
<path style="fill:#6c7681; stroke:none;" d="M157 315L158 316L157 315z"/>
<path style="fill:#927e6f; stroke:none;" d="M161 315L162 316L161 315z"/>
<path style="fill:#6c7681; stroke:none;" d="M432 315L433 316L432 315z"/>
<path style="fill:#927e6f; stroke:none;" d="M433 315L434 316L433 315z"/>
<path style="fill:#6c7681; stroke:none;" d="M158 316L159 317L158 316M434 316L435 317L434 316M435 317L436 318L435 317z"/>
<path style="fill:#927e6f; stroke:none;" d="M436 318L437 319L436 318z"/>
<path style="fill:#fccc69; stroke:none;" d="M437 320L438 321L437 320z"/>
<path style="fill:#927e6f; stroke:none;" d="M437 321L437 324L438 324L437 321z"/>
<path style="fill:#6c7681; stroke:none;" d="M436 325L437 326L436 325z"/>
<path style="fill:#927e6f; stroke:none;" d="M435 327L436 328L435 327z"/>
<path style="fill:#fccc69; stroke:none;" d="M434 328L435 329L434 328z"/>
<path style="fill:#6c7681; stroke:none;" d="M172 331L202 330L257 330L432 330L413 329L373 329L233 329L188 329L172 331z"/>
<path style="fill:#927e6f; stroke:none;" d="M432 329L433 330L432 329z"/>
<path style="fill:#6c7681; stroke:none;" d="M173 331L174 332L173 331M174 332L175 333L174 332M175 333L176 334L175 333M176 334L177 335L176 334M177 335L178 336L177 335M178 336L179 337L178 336M179 337L180 338L179 337M180 338L181 339L180 338M181 339L182 340L181 339M182 340L183 341L182 340M183 341L184 342L183 341M184 342L185 343L184 342M185 343L186 344L185 343M186 344L187 345L186 344M187 345L188 346L187 345M188 346L189 347L188 346M189 347L190 348L189 347M190 348L191 349L190 348M191 349L192 350L191 349M192 350L193 351L192 350M193 351L194 352L193 351M194 352L195 353L194 352M195 353L196 354L195 353M196 354L197 355L196 354M197 355L198 356L197 355M198 356L199 357L198 356M199 357L200 358L199 357M200 358L201 359L200 358M201 359L202 360L201 359M202 360L203 361L202 360M203 361L204 362L203 361M204 362L205 363L204 362M205 363L206 364L205 363M206 364L207 365L206 364z"/>
<path style="fill:#927e6f; stroke:none;" d="M254.667 364.333L255.333 364.667L254.667 364.333z"/>
<path style="fill:#6c7681; stroke:none;" d="M256 364L256 365L430 365L413 364L378 364L256 364z"/>
<path style="fill:#927e6f; stroke:none;" d="M430.667 364.333L431.333 364.667L430.667 364.333z"/>
<path style="fill:#6c7681; stroke:none;" d="M207 365L208 366L207 365M252 365L253 366L252 365z"/>
<path style="fill:#020202; stroke:none;" d="M253.109 365.742C246.74 368.481 248.721 377.587 255.015 378.772C268.726 381.351 285.04 379 299 379L389 379L421 379C425.038 379 431.24 380.089 434.566 377.258C438.638 373.792 436.903 366.877 431.956 365.434C422.938 362.802 410.38 365 401 365L297 365C284.927 365 264.203 360.971 253.109 365.742z"/>
<path style="fill:#6c7681; stroke:none;" d="M433 365L434 366L433 365M208 366L209 367L208 366z"/>
<path style="fill:#fccc69; stroke:none;" d="M250 366L251 367L250 366z"/>
<path style="fill:#6c7681; stroke:none;" d="M209 367L210 368L209 367M210 368L211 369L210 368M249 368L250 369L249 368M436 368L437 369L436 368M211 369L212 370L211 369M212 370L213 371L212 370z"/>
<path style="fill:#927e6f; stroke:none;" d="M248 370L248 374L249 374L248 370M437 370L437 373L438 373L437 370z"/>
<path style="fill:#6c7681; stroke:none;" d="M213 371L214 372L213 371M214 372L215 373L214 372M215 373L216 374L215 373z"/>
<path style="fill:#fccc69; stroke:none;" d="M437 373L438 374L437 373z"/>
<path style="fill:#6c7681; stroke:none;" d="M216 374L217 375L216 374M217 375L218 376L217 375M249 375L250 376L249 375M436 375L437 376L436 375M218 376L219 377L218 376M219 377L220 378L219 377M220 378L221 379L220 378M252 378L253 379L252 378M433 378L434 379L433 378M221 379L222 380L221 379z"/>
<path style="fill:#927e6f; stroke:none;" d="M254 379L254 380L431 380L414 379L378 379L254 379z"/>
<path style="fill:#fccc69; stroke:none;" d="M431 379L432 380L431 379z"/>
<path style="fill:#6c7681; stroke:none;" d="M222 380L223 381L222 380M223 381L224 382L223 381M224 382L225 383L224 382M225 383L226 384L225 383M226 384L227 385L226 384M227 385L228 386L227 385M228 386L229 387L228 386M114 387L115 388L114 387M229 387L230 388L229 387z"/>
<path style="fill:#927e6f; stroke:none;" d="M114 388L114 473L115 473L115 418L116 388L114 388z"/>
<path style="fill:#6c7681; stroke:none;" d="M230 388L231 389L230 388z"/>
<path style="fill:#927e6f; stroke:none;" d="M116 389L117 390L116 389z"/>
<path style="fill:#6c7681; stroke:none;" d="M231 389L232 390L231 389z"/>
<path style="fill:#927e6f; stroke:none;" d="M117 390L118 391L117 390z"/>
<path style="fill:#6c7681; stroke:none;" d="M232 390L233 391L232 390z"/>
<path style="fill:#927e6f; stroke:none;" d="M118 391L119 392L118 391z"/>
<path style="fill:#6c7681; stroke:none;" d="M233 391L234 392L233 391z"/>
<path style="fill:#927e6f; stroke:none;" d="M119 392L120 393L119 392z"/>
<path style="fill:#fccc69; stroke:none;" d="M234 392L235 393L234 392z"/>
<path style="fill:#927e6f; stroke:none;" d="M120 393L121 394L120 393z"/>
<path style="fill:#6c7681; stroke:none;" d="M234 393L235 394L234 393z"/>
<path style="fill:#927e6f; stroke:none;" d="M121 394L122 395L121 394M122 395L123 396L122 395z"/>
<path style="fill:#fccc69; stroke:none;" d="M235 395L235 440L236 440C236 427.258 239.91 406.701 235 395z"/>
<path style="fill:#927e6f; stroke:none;" d="M123 396L124 397L123 396M124 397L125 398L124 397M125 398L126 399L125 398M126 399L127 400L126 399M127 400L128 401L127 400M128 401L129 402L128 401M129 402L130 403L129 402M130 403L131 404L130 403M131 404L132 405L131 404M132 405L133 406L132 405M133 406L134 407L133 406M134 407L135 408L134 407M135 408L136 409L135 408M136 409L137 410L136 409M137 410L138 411L137 410M138 411L139 412L138 411M139 412L140 413L139 412M140 413L141 414L140 413M141 414L142 415L141 414M142 415L143 416L142 415z"/>
<path style="fill:#fccc69; stroke:none;" d="M219 415L200 435C205.875 430.861 217.28 422.094 219 415z"/>
<path style="fill:#6c7681; stroke:none;" d="M220 415L220 435L221 435L220 415z"/>
<path style="fill:#927e6f; stroke:none;" d="M143 416L144 417L143 416z"/>
<path style="fill:#f1eef0; stroke:none;" d="M219 416L201 435L220 435L219 416z"/>
<path style="fill:#927e6f; stroke:none;" d="M144 417L145 418L144 417M145 418L146 419L145 418M146 419L147 420L146 419M147 420L148 421L147 420M148 421L149 422L148 421M149 422L150 423L149 422M150 423L151 424L150 423M151 424L152 425L151 424M152 425L153 426L152 425M153 426L154 427L153 426M154 427L155 428L154 427M155 428L156 429L155 428M156 429L157 430L156 429M157 430L158 431L157 430M158 431L159 432L158 431M159 432L160 433L159 432M160 433L161 434L160 433M161 434L162 435L161 434M162 435L163 436L162 435z"/>
<path style="fill:#6c7681; stroke:none;" d="M199 435L200 436L199 435z"/>
<path style="fill:#927e6f; stroke:none;" d="M200 435L200 436L220 436L200 435M163 436L164 437L163 436M164 437L165 438L164 437M165 438L166 439L165 438M166 439L167 440L166 439M167 440L168 441L167 440z"/>
<path style="fill:#6c7681; stroke:none;" d="M235 440L236 441L235 440z"/>
<path style="fill:#927e6f; stroke:none;" d="M168 441L169 442L168 441z"/>
<path style="fill:#6c7681; stroke:none;" d="M236 441L237 442L236 441z"/>
<path style="fill:#927e6f; stroke:none;" d="M169 442L170 443L169 442z"/>
<path style="fill:#6c7681; stroke:none;" d="M237 442L238 443L237 442z"/>
<path style="fill:#927e6f; stroke:none;" d="M170 443L171 444L170 443z"/>
<path style="fill:#6c7681; stroke:none;" d="M238 443L239 444L238 443z"/>
<path style="fill:#927e6f; stroke:none;" d="M171 444L172 445L171 444z"/>
<path style="fill:#6c7681; stroke:none;" d="M239 444L240 445L239 444z"/>
<path style="fill:#927e6f; stroke:none;" d="M172 445L173 446L172 445z"/>
<path style="fill:#6c7681; stroke:none;" d="M240 445L241 446L240 445z"/>
<path style="fill:#927e6f; stroke:none;" d="M173 446L174 447L173 446z"/>
<path style="fill:#6c7681; stroke:none;" d="M241 446L242 447L241 446z"/>
<path style="fill:#927e6f; stroke:none;" d="M174 447L175 448L174 447z"/>
<path style="fill:#6c7681; stroke:none;" d="M242 447L243 448L242 447z"/>
<path style="fill:#927e6f; stroke:none;" d="M175 448L176 449L175 448z"/>
<path style="fill:#6c7681; stroke:none;" d="M243 448L244 449L243 448z"/>
<path style="fill:#fccc69; stroke:none;" d="M176 449L177 450L176 449z"/>
<path style="fill:#6c7681; stroke:none;" d="M244 449L245 450L244 449z"/>
<path style="fill:#fccc69; stroke:none;" d="M178 450L179 451L178 450z"/>
<path style="fill:#927e6f; stroke:none;" d="M179 450L180 451L179 450z"/>
<path style="fill:#6c7681; stroke:none;" d="M180 450L180 451L225 451C213.299 446.09 192.742 450 180 450M245 450L246 451L245 450z"/>
<path style="fill:#927e6f; stroke:none;" d="M225 451L226 452L225 451M226 452L227 453L226 452z"/>
<path style="fill:#6c7681; stroke:none;" d="M246 452L247 453L246 452z"/>
<path style="fill:#927e6f; stroke:none;" d="M227 453L228 454L227 453M228 454L229 455L228 454M229 455L230 456L229 455M230 456L231 457L230 456z"/>
<path style="fill:#6c7681; stroke:none;" d="M246 456L247 457L246 456z"/>
<path style="fill:#927e6f; stroke:none;" d="M231 457L232 458L231 457M246 457L247 458L246 457M232 458L233 459L232 458M233 459L234 460L233 459M245 459L246 460L245 459M234 460L235 461L234 460M244 460L245 461L244 460z"/>
<path style="fill:#6c7681; stroke:none;" d="M236 461L237 462L236 461M242 461L243 462L242 461z"/>
<path style="fill:#fccc69; stroke:none;" d="M238 462L239 463L238 462z"/>
<path style="fill:#927e6f; stroke:none;" d="M239 462L240 463L239 462z"/>
<path style="fill:#fccc69; stroke:none;" d="M240 462L241 463L240 462z"/>
<path style="fill:#6c7681; stroke:none;" d="M114.333 473.667L114.667 474.333L114.333 473.667z"/>
<path style="fill:#927e6f; stroke:none;" d="M479 477L480 478L479 477M115 478L116 479L115 478z"/>
<path style="fill:#6c7681; stroke:none;" d="M479 478L480 479L479 478M115 479L116 480L115 479z"/>
<path style="fill:#927e6f; stroke:none;" d="M478 480L479 481L478 480z"/>
<path style="fill:#6c7681; stroke:none;" d="M116 481L117 482L116 481M478 481L479 482L478 481z"/>
<path style="fill:#fccc69; stroke:none;" d="M477 482L478 483L477 482z"/>
<path style="fill:#927e6f; stroke:none;" d="M117 483L118 484L117 483z"/>
<path style="fill:#6c7681; stroke:none;" d="M477 483L478 484L477 483z"/>
<path style="fill:#fccc69; stroke:none;" d="M476 484L477 485L476 484z"/>
<path style="fill:#6c7681; stroke:none;" d="M118 485L119 486L118 485z"/>
<path style="fill:#927e6f; stroke:none;" d="M119 486L120 487L119 486z"/>
<path style="fill:#6c7681; stroke:none;" d="M475 486L476 487L475 486z"/>
<path style="fill:#fccc69; stroke:none;" d="M120 487L121 488L120 487z"/>
<path style="fill:#927e6f; stroke:none;" d="M474 487L475 488L474 487z"/>
<path style="fill:#fccc69; stroke:none;" d="M473 488L474 489L473 488M472 489L473 490L472 489z"/>
<path style="fill:#927e6f; stroke:none;" d="M471 490L472 491L471 490M124 491L125 492L124 491M470 491L471 492L470 491z"/>
<path style="fill:#6c7681; stroke:none;" d="M125 492L126 493L125 492M469 492L470 493L469 492z"/>
<path style="fill:#927e6f; stroke:none;" d="M127 493L128 494L127 493M467 493L468 494L467 493M129 494L130 495L129 494M465 494L466 495L465 494z"/>
<path style="fill:#6c7681; stroke:none;" d="M131 495L132 496L131 495z"/>
<path style="fill:#fccc69; stroke:none;" d="M462 495L463 496L462 495z"/>
<path style="fill:#6c7681; stroke:none;" d="M463 495L464 496L463 495M134 496L135 497L134 496z"/>
<path style="fill:#927e6f; stroke:none;" d="M135 496L136 497L135 496z"/>
<path style="fill:#fccc69; stroke:none;" d="M136 496L137 497L136 496M457 496L458 497L457 496z"/>
<path style="fill:#927e6f; stroke:none;" d="M458.667 496.333L459.333 496.667L458.667 496.333z"/>
<path style="fill:#6c7681; stroke:none;" d="M460 496L461 497L460 496M397 497L398 498L397 497z"/>
<path style="fill:#fccc69; stroke:none;" d="M398 497L399 498L398 497z"/>
<path style="fill:#927e6f; stroke:none;" d="M422 497L423 498L422 497z"/>
<path style="fill:#6c7681; stroke:none;" d="M399 498L400 499L399 498z"/>
<path style="fill:#927e6f; stroke:none;" d="M420 498L421 499L420 498z"/>
<path style="fill:#6c7681; stroke:none;" d="M400 499L401 500L400 499z"/>
<path style="fill:#927e6f; stroke:none;" d="M419 499L420 500L419 499M401 500L402 501L401 500z"/>
<path style="fill:#6c7681; stroke:none;" d="M418 501L419 502L418 501z"/>
<path style="fill:#927e6f; stroke:none;" d="M402 502L403 503L402 502z"/>
<path style="fill:#6c7681; stroke:none;" d="M402 503L403 504L402 503z"/>
<path style="fill:#fccc69; stroke:none;" d="M417 503L418 504L417 503z"/>
<path style="fill:#927e6f; stroke:none;" d="M417 504L418 505L417 504z"/>
</svg>
